<svg xmlns="http://www.w3.org/2000/svg" xmlns:xlink="http://www.w3.org/1999/xlink" width="200" zoomAndPan="magnify" viewBox="0 0 150 71.249999" height="95" preserveAspectRatio="xMidYMid meet" version="1.0"><defs><g/><clipPath id="2369b5ab68"><path d="M 16 5.765625 L 78.53125 5.765625 L 78.53125 69.75 L 16 69.75 Z M 16 5.765625 " clip-rule="nonzero"/></clipPath><clipPath id="ac1c89f09e"><path d="M 11.738281 9 L 38 9 L 38 59 L 11.738281 59 Z M 11.738281 9 " clip-rule="nonzero"/></clipPath><clipPath id="a3c0c44967"><path d="M 11.738281 8 L 37 8 L 37 43 L 11.738281 43 Z M 11.738281 8 " clip-rule="nonzero"/></clipPath></defs><g clip-path="url(#2369b5ab68)"><path fill="#100f0d" d="M 78.53125 20.726562 L 78.527344 20.460938 C 76.808594 20.285156 75.082031 19.960938 73.378906 19.582031 C 66.546875 18.050781 59.910156 15.589844 53.53125 12.714844 C 51.785156 11.917969 49.660156 10.90625 47.964844 10.023438 C 45.878906 8.976562 43.613281 7.707031 41.578125 6.574219 L 40.261719 5.785156 L 17.128906 58.25 L 16.878906 58.910156 L 16.824219 59.046875 L 16.042969 61.105469 C 16.925781 61.136719 18.03125 61.203125 18.90625 61.269531 C 20.707031 61.410156 22.695312 61.617188 24.5 61.832031 C 31.035156 62.625 39.242188 64.1875 45.679688 65.59375 C 51.164062 66.765625 56.765625 68.226562 62.160156 69.75 C 60.375 69.140625 58.589844 68.507812 56.792969 67.910156 C 51.441406 66.144531 45.890625 64.5 40.441406 63.097656 C 34.152344 61.523438 27.332031 59.632812 20.765625 58.578125 L 41.753906 9.738281 C 45.339844 11.480469 49.058594 13.160156 52.742188 14.59375 C 59.359375 17.15625 66 19.925781 72.996094 21.105469 C 74.558594 21.363281 76.117188 21.578125 77.710938 21.683594 C 77.746094 22.214844 78.433594 32.488281 78.433594 32.488281 L 78.53125 20.726562 " fill-opacity="1" fill-rule="nonzero"/></g><g clip-path="url(#ac1c89f09e)"><path fill="#100f0d" d="M 12.589844 49.511719 L 11.738281 51.003906 L 15.390625 58.601562 L 37.277344 9.535156 L 12.589844 49.511719 " fill-opacity="1" fill-rule="nonzero"/></g><g clip-path="url(#a3c0c44967)"><path fill="#100f0d" d="M 36.429688 8.679688 L 11.867188 38.835938 L 14.625 42.96875 Z M 36.429688 8.679688 " fill-opacity="1" fill-rule="nonzero"/></g><path fill="#100f0d" d="M 58.761719 2.558594 C 59.320312 2.792969 59.898438 3.324219 60.375 4.351562 C 56.933594 6.070312 53.699219 9.648438 53.203125 10.214844 L 54.957031 10.988281 C 56.105469 9.683594 58.511719 7.164062 60.886719 5.820312 C 61.371094 7.691406 61.605469 10.515625 61.3125 14.714844 L 62.585938 14.816406 C 62.867188 10.730469 62.753906 7.519531 62.167969 5.214844 C 63.085938 4.882812 63.960938 4.800781 64.71875 5.121094 C 66.214844 5.75 67.875 8.542969 67.269531 17.277344 L 68.539062 17.378906 C 69.082031 9.550781 68.164062 4.945312 65.292969 3.738281 C 64.191406 3.277344 62.953125 3.375 61.699219 3.796875 C 61.148438 2.488281 60.371094 1.613281 59.335938 1.179688 C 54.804688 -0.722656 47.984375 6.8125 47.246094 7.652344 L 49.003906 8.425781 C 50.8125 6.367188 55.75 1.292969 58.761719 2.558594 " fill-opacity="1" fill-rule="nonzero"/><g fill="#000000" fill-opacity="1"><g transform="translate(39.867454, 49.366618)"><g><path d="M 4.9375 -6.25 L 7.3125 -11.375 L 9.875 -11.375 L 6.140625 -4.125 L 6.140625 0 L 3.75 0 L 3.75 -4.125 L 0.015625 -11.375 L 2.59375 -11.375 Z M 4.9375 -6.25 "/></g></g></g><g fill="#000000" fill-opacity="1"><g transform="translate(49.756449, 49.366618)"><g><path d="M 4.078125 -11.375 L 7 -3.125 L 9.90625 -11.375 L 12.984375 -11.375 L 12.984375 0 L 10.640625 0 L 10.640625 -3.109375 L 10.875 -8.484375 L 7.796875 0 L 6.1875 0 L 3.125 -8.46875 L 3.359375 -3.109375 L 3.359375 0 L 1.015625 0 L 1.015625 -11.375 Z M 4.078125 -11.375 "/></g></g></g><g fill="#000000" fill-opacity="1"><g transform="translate(63.769765, 49.366618)"><g/></g></g><g fill="#000000" fill-opacity="1"><g transform="translate(67.753484, 49.366618)"><g><path d="M 6.921875 -2.984375 C 6.921875 -3.429688 6.765625 -3.769531 6.453125 -4 C 6.140625 -4.238281 5.578125 -4.488281 4.765625 -4.75 C 3.953125 -5.019531 3.304688 -5.28125 2.828125 -5.53125 C 1.535156 -6.226562 0.890625 -7.171875 0.890625 -8.359375 C 0.890625 -8.972656 1.0625 -9.519531 1.40625 -10 C 1.757812 -10.476562 2.257812 -10.851562 2.90625 -11.125 C 3.550781 -11.394531 4.28125 -11.53125 5.09375 -11.53125 C 5.90625 -11.53125 6.628906 -11.382812 7.265625 -11.09375 C 7.898438 -10.800781 8.390625 -10.382812 8.734375 -9.84375 C 9.085938 -9.3125 9.265625 -8.703125 9.265625 -8.015625 L 6.921875 -8.015625 C 6.921875 -8.535156 6.753906 -8.941406 6.421875 -9.234375 C 6.097656 -9.523438 5.640625 -9.671875 5.046875 -9.671875 C 4.472656 -9.671875 4.023438 -9.546875 3.703125 -9.296875 C 3.390625 -9.054688 3.234375 -8.738281 3.234375 -8.34375 C 3.234375 -7.976562 3.421875 -7.671875 3.796875 -7.421875 C 4.171875 -7.171875 4.71875 -6.9375 5.4375 -6.71875 C 6.769531 -6.3125 7.738281 -5.8125 8.34375 -5.21875 C 8.957031 -4.625 9.265625 -3.882812 9.265625 -3 C 9.265625 -2.019531 8.890625 -1.25 8.140625 -0.6875 C 7.398438 -0.125 6.398438 0.15625 5.140625 0.15625 C 4.265625 0.15625 3.46875 -0.00390625 2.75 -0.328125 C 2.03125 -0.648438 1.484375 -1.085938 1.109375 -1.640625 C 0.734375 -2.203125 0.546875 -2.847656 0.546875 -3.578125 L 2.890625 -3.578125 C 2.890625 -2.328125 3.640625 -1.703125 5.140625 -1.703125 C 5.703125 -1.703125 6.140625 -1.8125 6.453125 -2.03125 C 6.765625 -2.257812 6.921875 -2.578125 6.921875 -2.984375 Z M 6.921875 -2.984375 "/></g></g></g><g fill="#000000" fill-opacity="1"><g transform="translate(77.587804, 49.366618)"><g><path d="M 9.578125 -9.484375 L 6.09375 -9.484375 L 6.09375 0 L 3.75 0 L 3.75 -9.484375 L 0.3125 -9.484375 L 0.3125 -11.375 L 9.578125 -11.375 Z M 9.578125 -9.484375 "/></g></g></g><g fill="#000000" fill-opacity="1"><g transform="translate(87.484613, 49.366618)"><g><path d="M 10.359375 -5.4375 C 10.359375 -4.3125 10.160156 -3.328125 9.765625 -2.484375 C 9.367188 -1.640625 8.800781 -0.988281 8.0625 -0.53125 C 7.332031 -0.0703125 6.488281 0.15625 5.53125 0.15625 C 4.59375 0.15625 3.753906 -0.0664062 3.015625 -0.515625 C 2.273438 -0.972656 1.703125 -1.625 1.296875 -2.46875 C 0.890625 -3.3125 0.679688 -4.28125 0.671875 -5.375 L 0.671875 -5.9375 C 0.671875 -7.050781 0.875 -8.035156 1.28125 -8.890625 C 1.6875 -9.742188 2.253906 -10.394531 2.984375 -10.84375 C 3.722656 -11.300781 4.566406 -11.53125 5.515625 -11.53125 C 6.460938 -11.53125 7.304688 -11.300781 8.046875 -10.84375 C 8.785156 -10.394531 9.351562 -9.742188 9.75 -8.890625 C 10.15625 -8.035156 10.359375 -7.050781 10.359375 -5.9375 Z M 7.984375 -5.953125 C 7.984375 -7.140625 7.769531 -8.039062 7.34375 -8.65625 C 6.914062 -9.28125 6.304688 -9.59375 5.515625 -9.59375 C 4.734375 -9.59375 4.128906 -9.285156 3.703125 -8.671875 C 3.273438 -8.066406 3.054688 -7.171875 3.046875 -5.984375 L 3.046875 -5.4375 C 3.046875 -4.269531 3.257812 -3.363281 3.6875 -2.71875 C 4.113281 -2.082031 4.726562 -1.765625 5.53125 -1.765625 C 6.320312 -1.765625 6.925781 -2.070312 7.34375 -2.6875 C 7.769531 -3.3125 7.984375 -4.210938 7.984375 -5.390625 Z M 7.984375 -5.953125 "/></g></g></g><g fill="#000000" fill-opacity="1"><g transform="translate(98.529668, 49.366618)"><g><path d="M 5.234375 -4.171875 L 3.359375 -4.171875 L 3.359375 0 L 1.015625 0 L 1.015625 -11.375 L 5.25 -11.375 C 6.59375 -11.375 7.628906 -11.070312 8.359375 -10.46875 C 9.085938 -9.875 9.453125 -9.03125 9.453125 -7.9375 C 9.453125 -7.164062 9.28125 -6.519531 8.9375 -6 C 8.601562 -5.476562 8.097656 -5.066406 7.421875 -4.765625 L 9.875 -0.109375 L 9.875 0 L 7.359375 0 Z M 3.359375 -6.0625 L 5.25 -6.0625 C 5.84375 -6.0625 6.300781 -6.210938 6.625 -6.515625 C 6.945312 -6.816406 7.109375 -7.226562 7.109375 -7.75 C 7.109375 -8.289062 6.953125 -8.710938 6.640625 -9.015625 C 6.335938 -9.328125 5.875 -9.484375 5.25 -9.484375 L 3.359375 -9.484375 Z M 3.359375 -6.0625 "/></g></g></g><g fill="#000000" fill-opacity="1"><g transform="translate(108.738927, 49.366618)"><g><path d="M 7.859375 -4.9375 L 3.359375 -4.9375 L 3.359375 -1.890625 L 8.640625 -1.890625 L 8.640625 0 L 1.015625 0 L 1.015625 -11.375 L 8.625 -11.375 L 8.625 -9.484375 L 3.359375 -9.484375 L 3.359375 -6.765625 L 7.859375 -6.765625 Z M 7.859375 -4.9375 "/></g></g></g><g fill="#000000" fill-opacity="1"><g transform="translate(47.453507, 56.395291)"><g><path d="M 5.03125 -1.53125 C 4.421875 -1.203125 3.703125 -0.859375 3.125 -0.390625 C 3.328125 -0.90625 3.5 -1.40625 3.65625 -1.921875 C 3.71875 -2.140625 3.28125 -2.640625 3.078125 -2.421875 C 2.609375 -1.96875 2.140625 -1.546875 1.609375 -1.15625 C 1.34375 -0.96875 1.0625 -0.78125 0.78125 -0.609375 C 0.609375 -0.515625 0.390625 -0.375 0.171875 -0.328125 C 0.265625 -0.71875 0.453125 -1.0625 0.703125 -1.390625 C 0.890625 -1.625 0.328125 -2.15625 0.140625 -1.9375 C -0.25 -1.453125 -0.46875 -0.875 -0.515625 -0.25 C -0.546875 -0.078125 -0.34375 0.125 -0.203125 0.171875 C 0.515625 0.5 1.15625 0.0625 1.75 -0.328125 C 2.03125 -0.515625 2.28125 -0.71875 2.546875 -0.90625 C 2.328125 -0.328125 2.09375 0.25 1.8125 0.8125 C 1.703125 0.921875 1.59375 1.03125 1.484375 1.15625 C 1.015625 1.609375 0.578125 2.09375 0.1875 2.59375 C -0.25 3.1875 -0.640625 3.859375 -0.421875 4.625 C -0.390625 4.765625 -0.015625 5.1875 0.15625 4.984375 C 1.015625 3.84375 1.765625 2.625 2.390625 1.34375 C 3.296875 0.453125 4.265625 -0.421875 5.359375 -1.0625 C 5.65625 -1.234375 5.28125 -1.65625 5.03125 -1.53125 Z M 5.03125 -1.53125 "/></g></g></g><g fill="#000000" fill-opacity="1"><g transform="translate(52.576395, 56.395291)"><g><path d="M 1.390625 -1.546875 C 1.375 -1.59375 1.359375 -1.640625 1.359375 -1.6875 C 1.515625 -1.875 1.078125 -2.375 0.84375 -2.25 C 0.09375 -1.875 -1.25 -0.5625 -0.4375 0.328125 C -0.015625 0.8125 0.546875 0.609375 0.90625 0.15625 C 1.28125 -0.328125 1.453125 -0.9375 1.390625 -1.546875 Z M 0.5625 -0.765625 C 0.484375 -0.578125 0.375 -0.421875 0.234375 -0.265625 C 0.15625 -0.171875 0.078125 -0.140625 -0.03125 -0.0625 C -0.015625 -0.125 0 -0.1875 0.015625 -0.21875 C 0.03125 -0.296875 0.078125 -0.375 0.109375 -0.453125 C 0.1875 -0.609375 0.296875 -0.78125 0.421875 -0.921875 C 0.515625 -1.0625 0.609375 -1.15625 0.734375 -1.265625 C 0.703125 -1.09375 0.65625 -0.921875 0.5625 -0.765625 Z M 0.5625 -0.765625 "/></g></g></g><g fill="#000000" fill-opacity="1"><g transform="translate(54.770222, 56.395291)"><g><path d="M 4.15625 -1.5 C 3.78125 -1.109375 2.984375 -0.421875 2.484375 -0.3125 C 2.484375 -0.34375 2.5 -0.375 2.5 -0.421875 C 2.578125 -0.765625 2.6875 -1.109375 2.796875 -1.453125 C 2.875 -1.6875 2.4375 -2.15625 2.21875 -1.953125 C 1.671875 -1.453125 1.15625 -0.953125 0.578125 -0.5 C 0.40625 -0.375 0.21875 -0.21875 0.03125 -0.125 C 0.0625 -0.21875 0.09375 -0.328125 0.140625 -0.421875 C 0.25 -0.671875 0.375 -0.90625 0.53125 -1.109375 C 0.734375 -1.34375 0.171875 -1.875 -0.015625 -1.65625 C -0.390625 -1.203125 -0.9375 -0.234375 -0.515625 0.3125 C -0.1875 0.734375 0.234375 0.640625 0.625 0.40625 C 1.0625 0.140625 1.453125 -0.1875 1.828125 -0.53125 C 1.828125 -0.515625 1.828125 -0.5 1.828125 -0.484375 C 1.765625 -0.140625 1.859375 0.203125 2.1875 0.390625 C 2.484375 0.5625 2.765625 0.421875 3.03125 0.25 C 3.578125 -0.125 4.0625 -0.640625 4.53125 -1.109375 C 4.75 -1.328125 4.375 -1.71875 4.15625 -1.5 Z M 4.15625 -1.5 "/></g></g></g><g fill="#000000" fill-opacity="1"><g transform="translate(58.980003, 56.395291)"><g><path d="M 2.171875 -1.578125 C 1.921875 -1.484375 1.359375 -1.328125 0.765625 -1.0625 C 0.703125 -1.109375 0.640625 -1.171875 0.578125 -1.25 C 0.4375 -1.421875 0.328125 -1.84375 0.71875 -1.828125 C 0.890625 -1.8125 0.875 -2.03125 0.8125 -2.140625 C 0.75 -2.28125 0.5625 -2.4375 0.390625 -2.453125 C -0.203125 -2.5 -0.28125 -1.84375 -0.078125 -1.40625 C 0.046875 -1.171875 0.25 -1.015625 0.421875 -0.796875 C -0.234375 -0.265625 -0.703125 0.40625 -0.0625 0.9375 C 0.546875 1.4375 1.109375 0.703125 1.203125 0.125 C 1.21875 -0.0625 1.203125 -0.234375 1.15625 -0.40625 C 1.53125 -0.6875 1.9375 -0.90625 2.375 -1.078125 C 2.6875 -1.203125 2.4375 -1.6875 2.171875 -1.578125 Z M 2.171875 -1.578125 "/></g></g></g><g fill="#000000" fill-opacity="1"><g transform="translate(61.244985, 56.395291)"><g><path d="M 2.171875 -1.578125 C 1.921875 -1.484375 1.359375 -1.328125 0.765625 -1.0625 C 0.703125 -1.109375 0.640625 -1.171875 0.578125 -1.25 C 0.4375 -1.421875 0.328125 -1.84375 0.71875 -1.828125 C 0.890625 -1.8125 0.875 -2.03125 0.8125 -2.140625 C 0.75 -2.28125 0.5625 -2.4375 0.390625 -2.453125 C -0.203125 -2.5 -0.28125 -1.84375 -0.078125 -1.40625 C 0.046875 -1.171875 0.25 -1.015625 0.421875 -0.796875 C -0.234375 -0.265625 -0.703125 0.40625 -0.0625 0.9375 C 0.546875 1.4375 1.109375 0.703125 1.203125 0.125 C 1.21875 -0.0625 1.203125 -0.234375 1.15625 -0.40625 C 1.53125 -0.6875 1.9375 -0.90625 2.375 -1.078125 C 2.6875 -1.203125 2.4375 -1.6875 2.171875 -1.578125 Z M 2.171875 -1.578125 "/></g></g></g><g fill="#000000" fill-opacity="1"><g transform="translate(63.509968, 56.395291)"><g><path d="M 3.078125 -1.484375 C 2.375 -0.9375 0.671875 -0.09375 -0.046875 0 C -0.03125 -0.09375 0.015625 -0.1875 0.046875 -0.265625 C 0.46875 -0.46875 2.0625 -1.09375 1.390625 -1.796875 C 0.921875 -2.28125 0.296875 -1.84375 -0.0625 -1.453125 C -0.453125 -1.03125 -1 -0.1875 -0.5625 0.375 C -0.296875 0.765625 0.109375 0.71875 0.5 0.59375 C 1.5625 0.21875 2.546875 -0.5 3.484375 -1.109375 C 3.71875 -1.25 3.328125 -1.671875 3.078125 -1.484375 Z M 3.078125 -1.484375 "/></g></g></g><g fill="#000000" fill-opacity="1"><g transform="translate(66.652482, 56.395291)"><g><path d="M 1.53125 -0.46875 C 1.15625 -0.71875 0.796875 -0.765625 0.421875 -0.703125 C 0.640625 -1.15625 0.90625 -1.609375 1.171875 -2.046875 C 1.359375 -2.296875 0.78125 -2.828125 0.625 -2.578125 C -0.078125 -1.515625 -0.625 -0.359375 -0.921875 0.90625 C -1.1875 2 -1.5 3.515625 -0.375 4.21875 C -0.296875 4.265625 -0.171875 4.3125 -0.109375 4.234375 C 0.515625 3.546875 0.6875 2.671875 0.796875 1.796875 C 0.875 1.15625 0.90625 0.46875 0.5625 -0.03125 C 0.84375 -0.125 1.15625 -0.171875 1.390625 -0.03125 C 1.8125 0.265625 1.859375 -0.25 1.53125 -0.46875 Z M 0.21875 0.953125 C 0.1875 1.296875 0.15625 1.625 0.09375 1.953125 C -0.015625 2.515625 -0.171875 3.046875 -0.515625 3.5 C -0.625 3.171875 -0.515625 2.546875 -0.5 2.328125 C -0.421875 1.75 -0.296875 1.203125 -0.125 0.65625 C -0.0625 0.46875 0.015625 0.265625 0.078125 0.078125 C 0.3125 0.265625 0.234375 0.71875 0.21875 0.953125 Z M 0.21875 0.953125 "/></g></g></g><g fill="#000000" fill-opacity="1"><g transform="translate(69.130918, 56.395291)"><g/></g></g><g fill="#000000" fill-opacity="1"><g transform="translate(73.601583, 56.395291)"><g><path d="M 4.453125 -1.5 C 4 -1.109375 2.734375 -0.171875 2.03125 -0.078125 C 2.015625 -0.078125 2.015625 -0.078125 2 -0.078125 C 2.046875 -0.265625 2.0625 -0.421875 2.140625 -0.609375 C 2.1875 -0.796875 2.265625 -0.96875 2.28125 -1.15625 C 2.296875 -1.1875 2.296875 -1.21875 2.28125 -1.265625 C 2.28125 -1.390625 2.15625 -1.546875 2.015625 -1.640625 C 1.9375 -1.703125 1.84375 -1.734375 1.75 -1.703125 C 1.6875 -1.703125 1.625 -1.671875 1.546875 -1.65625 C 1.21875 -2.09375 0.609375 -2.171875 0.140625 -1.828125 C -0.4375 -1.390625 -0.828125 -0.65625 -0.984375 0.046875 C -1.03125 0.28125 -0.703125 0.671875 -0.453125 0.578125 C 0.265625 0.296875 0.796875 -0.3125 1.421875 -0.734375 C 1.359375 -0.53125 1.328125 -0.328125 1.40625 -0.109375 C 1.5 0.21875 1.796875 0.515625 2.140625 0.5625 C 2.5 0.59375 2.84375 0.40625 3.125 0.234375 C 3.765625 -0.140625 4.3125 -0.625 4.859375 -1.109375 C 5.078125 -1.3125 4.671875 -1.71875 4.453125 -1.5 Z M 0.171875 -0.71875 C 0.171875 -0.71875 0.171875 -0.734375 0.171875 -0.734375 C 0.3125 -0.90625 0.453125 -1.0625 0.609375 -1.203125 C 0.71875 -1.28125 0.8125 -1.375 0.953125 -1.40625 C 1 -1.40625 1.046875 -1.421875 1.09375 -1.4375 C 1.09375 -1.421875 1.09375 -1.421875 1.109375 -1.421875 C 0.765625 -1.234375 0.46875 -0.96875 0.171875 -0.71875 Z M 0.171875 -0.71875 "/></g></g></g><g fill="#000000" fill-opacity="1"><g transform="translate(78.119685, 56.395291)"><g><path d="M 4.734375 -1.53125 C 3.921875 -1.15625 3.03125 -0.765625 2.203125 -0.375 C 2.375 -0.71875 2.546875 -1.0625 2.75 -1.390625 C 2.90625 -1.640625 2.515625 -2.046875 2.25 -1.96875 C 1.640625 -1.78125 1.0625 -1.484375 0.515625 -1.125 C 0.515625 -1.140625 0.53125 -1.15625 0.546875 -1.15625 C 0.671875 -1.40625 0.09375 -1.90625 -0.078125 -1.609375 C -0.375 -1.0625 -0.671875 -0.484375 -0.8125 0.125 C -0.875 0.328125 -0.4375 0.859375 -0.234375 0.609375 C 0.265625 0.015625 0.859375 -0.484375 1.546875 -0.859375 C 1.421875 -0.625 1.328125 -0.390625 1.296875 -0.15625 C 1.234375 0.25 1.609375 0.640625 2.03125 0.546875 C 2.4375 0.453125 2.84375 0.125 3.203125 -0.078125 C 3.765625 -0.453125 4.359375 -0.8125 4.96875 -1.09375 C 5.265625 -1.234375 5 -1.65625 4.734375 -1.53125 Z M 4.734375 -1.53125 "/></g></g></g><g fill="#000000" fill-opacity="1"><g transform="translate(82.898672, 56.395291)"><g><path d="M 4.703125 -6.765625 C 4.671875 -6.78125 4.65625 -6.78125 4.625 -6.78125 C 4.609375 -6.78125 4.609375 -6.78125 4.609375 -6.78125 C 4.5625 -6.78125 4.515625 -6.765625 4.484375 -6.71875 C 4.46875 -6.71875 4.46875 -6.703125 4.46875 -6.6875 C 3.640625 -5.046875 2.765625 -3.390625 1.609375 -1.9375 C 1.578125 -1.890625 1.53125 -1.84375 1.5 -1.78125 C 1.15625 -2.09375 0.625 -2.140625 0.21875 -1.828125 C -0.375 -1.390625 -0.765625 -0.65625 -0.921875 0.046875 C -0.96875 0.28125 -0.640625 0.671875 -0.390625 0.578125 C 0.46875 0.265625 1.15625 -0.265625 1.765625 -0.90625 C 1.5625 -0.40625 1.375 0.09375 1.203125 0.609375 C 1.109375 0.890625 1.703125 1.359375 1.8125 1.0625 C 2.671875 -1.46875 3.875 -3.859375 5.078125 -6.234375 C 5.09375 -6.265625 5.09375 -6.28125 5.09375 -6.296875 C 5.125 -6.46875 4.890625 -6.71875 4.703125 -6.765625 Z M 0.03125 -0.421875 C 0.09375 -0.53125 0.171875 -0.640625 0.234375 -0.734375 C 0.375 -0.90625 0.515625 -1.0625 0.671875 -1.203125 C 0.765625 -1.28125 0.890625 -1.375 1.015625 -1.40625 C 1.0625 -1.40625 1.109375 -1.421875 1.15625 -1.4375 C 1.15625 -1.421875 1.171875 -1.421875 1.1875 -1.421875 C 0.84375 -1.046875 0.46875 -0.6875 0.03125 -0.421875 Z M 0.03125 -0.421875 "/></g></g></g><g fill="#000000" fill-opacity="1"><g transform="translate(86.717121, 56.395291)"><g/></g></g><g fill="#000000" fill-opacity="1"><g transform="translate(91.187786, 56.395291)"><g><path d="M 6.65625 -1.46875 C 6.03125 -0.96875 4.734375 -0.34375 4.40625 -0.265625 C 4.421875 -0.3125 4.421875 -0.375 4.40625 -0.421875 C 4.390625 -0.703125 4.1875 -0.953125 3.9375 -1.0625 C 3.6875 -1.1875 3.4375 -1.109375 3.21875 -0.96875 C 3.125 -0.921875 3.03125 -0.859375 2.953125 -0.8125 C 3.015625 -1.015625 3.078125 -1.203125 3.046875 -1.40625 C 2.984375 -1.859375 2.546875 -2.09375 2.15625 -1.90625 C 1.53125 -1.625 0.9375 -1.25 0.40625 -0.828125 C 0.453125 -0.953125 0.5 -1.0625 0.5625 -1.15625 C 0.6875 -1.40625 0.109375 -1.90625 -0.0625 -1.609375 C -0.34375 -1.0625 -0.515625 -0.484375 -0.609375 0.125 C -0.625 0.328125 -0.203125 0.765625 -0.015625 0.5625 C 0.390625 0.171875 0.8125 -0.21875 1.296875 -0.53125 C 1.546875 -0.71875 1.796875 -0.859375 2.0625 -1.015625 C 2.140625 -1.0625 2.234375 -1.125 2.34375 -1.1875 C 2.3125 -1.09375 2.28125 -1.015625 2.265625 -0.953125 C 2.203125 -0.6875 2.140625 -0.421875 2.09375 -0.15625 C 2.03125 0.09375 2.421875 0.515625 2.671875 0.34375 C 2.890625 0.1875 3.109375 0.03125 3.328125 -0.125 C 3.4375 -0.203125 3.546875 -0.296875 3.671875 -0.375 C 3.671875 -0.375 3.71875 -0.390625 3.734375 -0.40625 C 3.734375 -0.390625 3.734375 -0.390625 3.734375 -0.375 C 3.71875 -0.265625 3.6875 -0.125 3.71875 0 C 3.8125 0.28125 4.09375 0.5 4.390625 0.484375 C 4.671875 0.46875 4.953125 0.3125 5.1875 0.171875 C 5.828125 -0.1875 6.421875 -0.65625 7 -1.109375 C 7.21875 -1.296875 6.890625 -1.65625 6.65625 -1.46875 Z M 6.65625 -1.46875 "/></g></g></g><g fill="#000000" fill-opacity="1"><g transform="translate(97.864141, 56.395291)"><g><path d="M 1.390625 -1.546875 C 1.375 -1.59375 1.359375 -1.640625 1.359375 -1.6875 C 1.515625 -1.875 1.078125 -2.375 0.84375 -2.25 C 0.09375 -1.875 -1.25 -0.5625 -0.4375 0.328125 C -0.015625 0.8125 0.546875 0.609375 0.90625 0.15625 C 1.28125 -0.328125 1.453125 -0.9375 1.390625 -1.546875 Z M 0.5625 -0.765625 C 0.484375 -0.578125 0.375 -0.421875 0.234375 -0.265625 C 0.15625 -0.171875 0.078125 -0.140625 -0.03125 -0.0625 C -0.015625 -0.125 0 -0.1875 0.015625 -0.21875 C 0.03125 -0.296875 0.078125 -0.375 0.109375 -0.453125 C 0.1875 -0.609375 0.296875 -0.78125 0.421875 -0.921875 C 0.515625 -1.0625 0.609375 -1.15625 0.734375 -1.265625 C 0.703125 -1.09375 0.65625 -0.921875 0.5625 -0.765625 Z M 0.5625 -0.765625 "/></g></g></g><g fill="#000000" fill-opacity="1"><g transform="translate(100.057968, 56.395291)"><g><path d="M 5.515625 -1.53125 C 4.84375 -1.15625 4.015625 -0.78125 3.234375 -0.5625 C 3.328125 -0.8125 3.4375 -1.0625 3.5 -1.328125 C 3.5625 -1.65625 3.5625 -2 3.296875 -2.234375 C 2.953125 -2.5625 2.640625 -2.40625 2.296875 -2.203125 C 1.59375 -1.796875 0.953125 -1.3125 0.359375 -0.765625 C 0.4375 -1.015625 0.53125 -1.28125 0.640625 -1.53125 C 0.859375 -2.109375 1.109375 -2.6875 1.375 -3.234375 C 1.890625 -4.359375 2.515625 -5.4375 3.203125 -6.46875 C 3.375 -6.71875 2.8125 -7.25 2.65625 -7.015625 C 1.84375 -5.796875 1.109375 -4.5 0.515625 -3.171875 C 0.21875 -2.5 -0.046875 -1.828125 -0.28125 -1.140625 C -0.484375 -0.578125 -0.5625 -0.078125 -0.046875 0.328125 C 0.03125 0.390625 0.21875 0.484375 0.3125 0.375 C 1.046875 -0.421875 1.90625 -1.109375 2.859375 -1.65625 C 2.8125 -1.5 2.75 -1.328125 2.6875 -1.171875 C 2.609375 -0.953125 2.53125 -0.71875 2.53125 -0.46875 C 2.59375 0.046875 3.109375 0.265625 3.546875 0.109375 C 4.34375 -0.15625 5.078125 -0.671875 5.796875 -1.078125 C 6.09375 -1.25 5.75 -1.671875 5.515625 -1.53125 Z M 5.515625 -1.53125 "/></g></g></g><g fill="#000000" fill-opacity="1"><g transform="translate(105.643337, 56.395291)"><g><path d="M 4.453125 -1.5 C 4 -1.109375 2.734375 -0.171875 2.03125 -0.078125 C 2.015625 -0.078125 2.015625 -0.078125 2 -0.078125 C 2.046875 -0.265625 2.0625 -0.421875 2.140625 -0.609375 C 2.1875 -0.796875 2.265625 -0.96875 2.28125 -1.15625 C 2.296875 -1.1875 2.296875 -1.21875 2.28125 -1.265625 C 2.28125 -1.390625 2.15625 -1.546875 2.015625 -1.640625 C 1.9375 -1.703125 1.84375 -1.734375 1.75 -1.703125 C 1.6875 -1.703125 1.625 -1.671875 1.546875 -1.65625 C 1.21875 -2.09375 0.609375 -2.171875 0.140625 -1.828125 C -0.4375 -1.390625 -0.828125 -0.65625 -0.984375 0.046875 C -1.03125 0.28125 -0.703125 0.671875 -0.453125 0.578125 C 0.265625 0.296875 0.796875 -0.3125 1.421875 -0.734375 C 1.359375 -0.53125 1.328125 -0.328125 1.40625 -0.109375 C 1.5 0.21875 1.796875 0.515625 2.140625 0.5625 C 2.5 0.59375 2.84375 0.40625 3.125 0.234375 C 3.765625 -0.140625 4.3125 -0.625 4.859375 -1.109375 C 5.078125 -1.3125 4.671875 -1.71875 4.453125 -1.5 Z M 0.171875 -0.71875 C 0.171875 -0.71875 0.171875 -0.734375 0.171875 -0.734375 C 0.3125 -0.90625 0.453125 -1.0625 0.609375 -1.203125 C 0.71875 -1.28125 0.8125 -1.375 0.953125 -1.40625 C 1 -1.40625 1.046875 -1.421875 1.09375 -1.4375 C 1.09375 -1.421875 1.09375 -1.421875 1.109375 -1.421875 C 0.765625 -1.234375 0.46875 -0.96875 0.171875 -0.71875 Z M 0.171875 -0.71875 "/></g></g></g></svg>